<svg width="600" height="181" viewBox="0 0 600 181" fill="none" xmlns="http://www.w3.org/2000/svg">
<g clip-path="url(#clip0)">
<g filter="url(#filter0_d)">
<path d="M101.899 62.3441L107.327 40.2703C80.2338 40.089 51.626 42.1713 41.4748 65.1183C36.407 76.5745 36.6383 90.7702 46.7225 100.355C54.141 107.406 66.7361 107.8 73.6762 107.26C82.5915 106.565 105.494 99.1779 103.921 113.864C103.244 120.18 95.0211 124.101 86.5358 126.156C75.8488 128.743 64.0174 126.712 64.0174 126.712L56.7485 149.379C88.6293 155.5 117.901 140.448 126.225 124.217C134.55 107.986 125.861 92.5715 118.577 86.786C104.803 75.8443 79.2051 87.6062 70.3558 85.374C66.4945 84.4 63.2777 82.9976 62.2715 78.1526C58.5786 60.3704 101.899 62.3441 101.899 62.3441Z" stroke="#F9DFFA" stroke-width="14.8336"/>
</g>
<g filter="url(#filter1_d)">
<path d="M100.12 56.8192L105.548 34.7454C78.4548 34.5641 49.847 36.6464 39.6959 59.5934C34.628 71.0496 34.8593 85.2453 44.9436 94.8299C52.362 101.881 64.9571 102.276 71.8972 101.735C80.8125 101.04 103.715 93.653 102.142 108.339C101.465 114.655 93.2421 118.576 84.7568 120.631C74.0699 123.218 62.2384 121.188 62.2384 121.188L54.9695 143.854C86.8503 149.975 116.122 134.923 124.446 118.692C132.771 102.461 124.082 87.0466 116.798 81.2611C103.024 70.3194 77.4261 82.0813 68.5768 79.8491C64.7155 78.8751 61.4987 77.4727 60.4925 72.6277C56.7996 54.8455 100.12 56.8192 100.12 56.8192Z" stroke="#FFC75B" stroke-width="14.8336"/>
</g>
<g filter="url(#filter2_d)">
<path d="M109.329 53.854L114.756 31.7802C87.6633 31.5989 59.0555 33.6812 48.9044 56.6282C43.8365 68.0844 44.0678 82.2801 54.1521 91.8647C61.5705 98.9156 74.1656 99.3103 81.1057 98.7696C90.021 98.075 112.924 90.6878 111.35 105.374C110.674 111.69 102.451 115.611 93.9653 117.666C83.2783 120.253 71.4469 118.222 71.4469 118.222L64.178 140.889C96.0588 147.01 125.33 131.958 133.655 115.727C141.98 99.4955 133.29 84.0814 126.007 78.2959C112.233 67.3542 86.6346 79.1161 77.7853 76.8839C73.924 75.9099 70.7072 74.5074 69.701 69.6625C66.0081 51.8803 109.329 53.854 109.329 53.854Z" stroke="url(#paint0_linear)" stroke-width="14.8336"/>
</g>
<rect x="34.3145" y="145.642" width="38.6951" height="10.319" transform="rotate(-71.6559 34.3145 145.642)" fill="#D483E8"/>
<path d="M190.22 124.155C185.429 124.155 180.788 123.427 176.3 121.971C171.872 120.455 168.384 118.514 165.837 116.148L169.203 109.052C171.629 111.235 174.723 113.025 178.483 114.42C182.305 115.754 186.217 116.421 190.22 116.421C195.497 116.421 199.44 115.542 202.048 113.783C204.656 111.963 205.961 109.567 205.961 106.595C205.961 104.411 205.233 102.652 203.777 101.318C202.382 99.9229 200.623 98.8614 198.5 98.1335C196.438 97.4057 193.496 96.5868 189.674 95.677C184.883 94.5245 181.001 93.372 178.029 92.2196C175.117 91.0671 172.6 89.3081 170.477 86.9425C168.415 84.5163 167.383 81.2712 167.383 77.2073C167.383 73.8105 168.263 70.7474 170.022 68.0179C171.842 65.2884 174.571 63.1048 178.21 61.4671C181.85 59.8294 186.369 59.0105 191.767 59.0105C195.528 59.0105 199.228 59.4958 202.867 60.4663C206.506 61.4368 209.63 62.8318 212.238 64.6515L209.236 71.9302C206.567 70.2318 203.716 68.9581 200.683 68.1089C197.651 67.1991 194.679 66.7441 191.767 66.7441C186.611 66.7441 182.729 67.6843 180.121 69.5646C177.574 71.445 176.3 73.8712 176.3 76.8433C176.3 79.0269 177.028 80.8163 178.483 82.2114C179.939 83.5458 181.729 84.6073 183.851 85.3958C186.035 86.1237 188.977 86.9122 192.677 87.7614C197.469 88.9138 201.32 90.0663 204.232 91.2188C207.143 92.3712 209.63 94.1302 211.693 96.4958C213.815 98.8614 214.877 102.046 214.877 106.049C214.877 109.385 213.967 112.448 212.147 115.238C210.328 117.968 207.568 120.152 203.868 121.789C200.168 123.366 195.619 124.155 190.22 124.155ZM280.519 74.7507C286.584 74.7507 291.376 76.5097 294.894 80.0278C298.473 83.5458 300.262 88.7622 300.262 95.677V123.427H291.528V96.6778C291.528 92.0073 290.436 88.4892 288.252 86.1237C286.13 83.7581 283.066 82.5753 279.063 82.5753C274.635 82.5753 271.117 83.9704 268.509 86.7606C265.901 89.4901 264.597 93.4327 264.597 98.5884V123.427H255.862V96.6778C255.862 92.0073 254.77 88.4892 252.587 86.1237C250.464 83.7581 247.401 82.5753 243.398 82.5753C238.97 82.5753 235.452 83.9704 232.843 86.7606C230.235 89.4901 228.931 93.4327 228.931 98.5884V123.427H220.197V75.2056H228.567V82.3933C230.326 79.9065 232.631 78.0261 235.482 76.7523C238.333 75.4179 241.578 74.7507 245.217 74.7507C248.978 74.7507 252.314 75.5089 255.225 77.0253C258.137 78.5417 260.381 80.7556 261.958 83.6671C263.778 80.8769 266.295 78.6933 269.51 77.1163C272.785 75.5392 276.455 74.7507 280.519 74.7507ZM355.394 75.2056V123.427H347.023V115.784C345.082 118.453 342.625 120.485 339.653 121.88C336.681 123.275 333.406 123.973 329.827 123.973C325.157 123.973 320.971 122.942 317.271 120.879C313.571 118.817 310.66 115.936 308.537 112.236C306.475 108.475 305.443 104.169 305.443 99.3163C305.443 94.4638 306.475 90.1876 308.537 86.4876C310.66 82.7876 313.571 79.9065 317.271 77.8442C320.971 75.7819 325.157 74.7507 329.827 74.7507C333.284 74.7507 336.469 75.4179 339.38 76.7523C342.292 78.0261 344.718 79.9368 346.659 82.4843V75.2056H355.394ZM330.555 116.33C333.588 116.33 336.348 115.633 338.834 114.238C341.321 112.782 343.262 110.78 344.657 108.233C346.053 105.625 346.75 102.652 346.75 99.3163C346.75 95.9802 346.053 93.0384 344.657 90.4909C343.262 87.8827 341.321 85.881 338.834 84.486C336.348 83.0909 333.588 82.3933 330.555 82.3933C327.462 82.3933 324.671 83.0909 322.184 84.486C319.758 85.881 317.817 87.8827 316.362 90.4909C314.966 93.0384 314.269 95.9802 314.269 99.3163C314.269 102.652 314.966 105.625 316.362 108.233C317.817 110.78 319.758 112.782 322.184 114.238C324.671 115.633 327.462 116.33 330.555 116.33ZM373.592 83.3032C375.108 80.513 377.352 78.3901 380.325 76.9343C383.297 75.4786 386.906 74.7507 391.152 74.7507V83.2122C390.666 83.1515 389.999 83.1212 389.15 83.1212C384.419 83.1212 380.688 84.5466 377.959 87.3974C375.29 90.1876 373.956 94.1909 373.956 99.4073V123.427H365.221V75.2056H373.592V83.3032ZM420.603 120.607C419.329 121.698 417.752 122.547 415.871 123.154C413.991 123.7 412.05 123.973 410.048 123.973C405.196 123.973 401.435 122.669 398.767 120.061C396.098 117.452 394.763 113.722 394.763 108.87V64.6515H403.498V75.2056H417.327V82.3933H403.498V108.506C403.498 111.114 404.135 113.116 405.408 114.511C406.743 115.906 408.623 116.603 411.049 116.603C413.718 116.603 415.993 115.845 417.873 114.329L420.603 120.607ZM439.526 123.973C434.856 123.973 431.247 122.699 428.699 120.152C426.152 117.543 424.878 113.904 424.878 109.234V55.9171H433.612V108.506C433.612 111.114 434.219 113.116 435.432 114.511C436.706 115.906 438.586 116.603 441.073 116.603C442.589 116.603 444.015 116.3 445.349 115.693L445.804 122.881C443.802 123.609 441.71 123.973 439.526 123.973ZM447.411 75.2056H456.146V123.427H447.411V75.2056ZM451.778 65.9253C450.08 65.9253 448.655 65.3794 447.502 64.2876C446.41 63.1958 445.865 61.8613 445.865 60.2843C445.865 58.7072 446.41 57.3728 447.502 56.281C448.655 55.1285 450.08 54.5523 451.778 54.5523C453.477 54.5523 454.872 55.0982 455.964 56.19C457.116 57.2212 457.692 58.5253 457.692 60.1023C457.692 61.74 457.116 63.1351 455.964 64.2876C454.872 65.3794 453.477 65.9253 451.778 65.9253ZM491.872 74.7507C497.999 74.7507 502.851 76.5401 506.43 80.1187C510.069 83.6368 511.889 88.8229 511.889 95.677V123.427H503.154V96.6778C503.154 92.0073 502.032 88.4892 499.788 86.1237C497.544 83.7581 494.329 82.5753 490.144 82.5753C485.413 82.5753 481.682 83.9704 478.953 86.7606C476.223 89.4901 474.859 93.4327 474.859 98.5884V123.427H466.124V75.2056H474.495V82.4843C476.254 79.9974 478.619 78.0868 481.591 76.7523C484.624 75.4179 488.051 74.7507 491.872 74.7507ZM540.097 100.954L530.089 110.234V123.427H521.355V55.9171H530.089V99.2253L556.384 75.2056H566.938L546.648 95.1311L568.939 123.427H558.203L540.097 100.954Z" fill="#272850"/>
</g>
<defs>
<filter id="filter0_d" x="14.4089" y="21.6683" width="141.066" height="151.086" filterUnits="userSpaceOnUse" color-interpolation-filters="sRGB">
<feFlood flood-opacity="0" result="BackgroundImageFix"/>
<feColorMatrix in="SourceAlpha" type="matrix" values="0 0 0 0 0 0 0 0 0 0 0 0 0 0 0 0 0 0 127 0"/>
<feOffset dx="3.86962" dy="2.57975"/>
<feGaussianBlur stdDeviation="0.644937"/>
<feColorMatrix type="matrix" values="0 0 0 0 0.241667 0 0 0 0 0.5905 0 0 0 0 1 0 0 0 0.25 0"/>
<feBlend mode="normal" in2="BackgroundImageFix" result="effect1_dropShadow"/>
<feBlend mode="normal" in="SourceGraphic" in2="effect1_dropShadow" result="shape"/>
</filter>
<filter id="filter1_d" x="12.6299" y="16.1434" width="141.066" height="151.086" filterUnits="userSpaceOnUse" color-interpolation-filters="sRGB">
<feFlood flood-opacity="0" result="BackgroundImageFix"/>
<feColorMatrix in="SourceAlpha" type="matrix" values="0 0 0 0 0 0 0 0 0 0 0 0 0 0 0 0 0 0 127 0"/>
<feOffset dx="3.86962" dy="2.57975"/>
<feGaussianBlur stdDeviation="0.644937"/>
<feColorMatrix type="matrix" values="0 0 0 0 0.241667 0 0 0 0 0.5905 0 0 0 0 1 0 0 0 0.25 0"/>
<feBlend mode="normal" in2="BackgroundImageFix" result="effect1_dropShadow"/>
<feBlend mode="normal" in="SourceGraphic" in2="effect1_dropShadow" result="shape"/>
</filter>
<filter id="filter2_d" x="21.8384" y="13.1782" width="141.066" height="151.086" filterUnits="userSpaceOnUse" color-interpolation-filters="sRGB">
<feFlood flood-opacity="0" result="BackgroundImageFix"/>
<feColorMatrix in="SourceAlpha" type="matrix" values="0 0 0 0 0 0 0 0 0 0 0 0 0 0 0 0 0 0 127 0"/>
<feOffset dx="3.86962" dy="2.57975"/>
<feGaussianBlur stdDeviation="0.644937"/>
<feColorMatrix type="matrix" values="0 0 0 0 0.241667 0 0 0 0 0.5905 0 0 0 0 1 0 0 0 0.25 0"/>
<feBlend mode="normal" in2="BackgroundImageFix" result="effect1_dropShadow"/>
<feBlend mode="normal" in="SourceGraphic" in2="effect1_dropShadow" result="shape"/>
</filter>
<linearGradient id="paint0_linear" x1="73.8583" y1="36.0132" x2="106.477" y2="137.317" gradientUnits="userSpaceOnUse">
<stop stop-color="#2F3466"/>
<stop offset="1" stop-color="#6F339E"/>
</linearGradient>
<clipPath id="clip0">
<rect width="600" height="180.867" fill="white"/>
</clipPath>
</defs>
</svg>
